# xmcd
#
# Track frame offsets:
#	150
#	14023
#	25518
#	36807
#	51523
#	64235
#	76331
#	92157
#	104840
#	118241
#	130425
#	145498
#	158329
#	172810
#	185267
#	196845
#	210496
#	223407
#
# Disc length: 3152 seconds
#
# Revision: 0
# Processed by: cddbd v1.4PL0 Copyright (c) Steve Scherf et al.
# Submitted via: EasyCDDAExtractor 4.6.9.1
#
DISCID=070c4e12
DTITLE=Sonny Boy Williamson - The Essential Sonny Boy Williamson [CD1]
DYEAR=1900
DGENRE=Blues
TTITLE0=Wonderful Time
TTITLE1=Black Panther Blues
TTITLE2=Polly Put Your Kettle On
TTITLE3=Dogging My Love Around
TTITLE4=Black Gal Blues
TTITLE5=Rub A Dub
TTITLE6=Decoration Day Blues No. 2
TTITLE7=Early In The Morning
TTITLE8=Jackson Blues
TTITLE9=She Don't Love Me That Way
TTITLE10=Little Girl Blues
TTITLE11=Miss Stella Brown Blues
TTITLE12=You're An Old Lady
TTITLE13=Check Up On My Baby Blues
TTITLE14=Got The Bottle And Gone
TTITLE15=Frigidaire Blues
TTITLE16=Welfare Store Blues
TTITLE17=Whisky Headed Blues
EXTD=
EXTT0=
EXTT1=
EXTT2=
EXTT3=
EXTT4=
EXTT5=
EXTT6=
EXTT7=
EXTT8=
EXTT9=
EXTT10=
EXTT11=
EXTT12=
EXTT13=
EXTT14=
EXTT15=
EXTT16=
EXTT17=
PLAYORDER=
